# xmcd
#
# Track frame offsets: 
#        150
#        25155
#        43785
#        67212
#        89930
#        102965
#        118127
#        132095
#        159040
#        170352
#
# Disc length: 2564 seconds
#
# Revision: 2
# Processed by: cddbd v1.5.2PL0 Copyright (c) Steve Scherf et al.
# Submitted via: ExactAudioCopy v0.99pb5
#
DISCID=870a020a
DTITLE=Various Artist - Best of the Blues
DYEAR=1990
DGENRE=Blues
TTITLE0=B.B. King - Thrill Is Gone
TTITLE1=Bobby Bland - Stormy Monday
TTITLE2=John Lee Hooker - Lonesome Mood
TTITLE3=Brownie McGhee and Sonny Terry - Brownie's New Blues
TTITLE4=T-Bone Walker - Why My Baby (Keep on Bothering Me)
TTITLE5=Big Joe Turner - Little Bittie Gal's Blues
TTITLE6=Memphis Minnie Mccoy - Moanin' the Blues
TTITLE7=B.B. King and Bobby Bland - I Like To Live the Love
TTITLE8=Bobby Bland - Turn On Your Love Light
TTITLE9=B.B.King with Carole King on Piano - Chains and Things
EXTD=YEAR: 1990
EXTT0=
EXTT1=
EXTT2=
EXTT3=
EXTT4=
EXTT5=
EXTT6=
EXTT7=
EXTT8=
EXTT9=
PLAYORDER=
